<mxfile host="app.diagrams.net" agent="Mozilla/5.0 (Windows NT 10.0; Win64; x64) AppleWebKit/537.36 (KHTML, like Gecko) Chrome/131.0.0.0 Safari/537.36 OPR/116.0.0.0" version="26.0.14">
  <diagram id="C5RBs43oDa-KdzZeNtuy" name="Page-1">
    <mxGraphModel dx="6267" dy="3939" grid="1" gridSize="10" guides="1" tooltips="1" connect="1" arrows="1" fold="1" page="1" pageScale="1" pageWidth="827" pageHeight="1169" math="0" shadow="0">
      <root>
        <mxCell id="WIyWlLk6GJQsqaUBKTNV-0" />
        <mxCell id="WIyWlLk6GJQsqaUBKTNV-1" parent="WIyWlLk6GJQsqaUBKTNV-0" />
        <mxCell id="zkfFHV4jXpPFQw0GAbJ--0" value="Top Model" style="swimlane;fontStyle=2;align=center;verticalAlign=top;childLayout=stackLayout;horizontal=1;startSize=26;horizontalStack=0;resizeParent=1;resizeLast=0;collapsible=1;marginBottom=0;rounded=0;shadow=0;strokeWidth=1;" parent="WIyWlLk6GJQsqaUBKTNV-1" vertex="1">
          <mxGeometry x="110" y="-60" width="160" height="256" as="geometry">
            <mxRectangle x="230" y="140" width="160" height="26" as="alternateBounds" />
          </mxGeometry>
        </mxCell>
        <mxCell id="zkfFHV4jXpPFQw0GAbJ--1" value="+nome: string" style="text;align=left;verticalAlign=top;spacingLeft=4;spacingRight=4;overflow=hidden;rotatable=0;points=[[0,0.5],[1,0.5]];portConstraint=eastwest;" parent="zkfFHV4jXpPFQw0GAbJ--0" vertex="1">
          <mxGeometry y="26" width="160" height="26" as="geometry" />
        </mxCell>
        <mxCell id="zkfFHV4jXpPFQw0GAbJ--2" value="#listaModelos: string" style="text;align=left;verticalAlign=top;spacingLeft=4;spacingRight=4;overflow=hidden;rotatable=0;points=[[0,0.5],[1,0.5]];portConstraint=eastwest;rounded=0;shadow=0;html=0;" parent="zkfFHV4jXpPFQw0GAbJ--0" vertex="1">
          <mxGeometry y="52" width="160" height="26" as="geometry" />
        </mxCell>
        <mxCell id="zkfFHV4jXpPFQw0GAbJ--5" value="#listaCursos: string" style="text;align=left;verticalAlign=top;spacingLeft=4;spacingRight=4;overflow=hidden;rotatable=0;points=[[0,0.5],[1,0.5]];portConstraint=eastwest;" parent="zkfFHV4jXpPFQw0GAbJ--0" vertex="1">
          <mxGeometry y="78" width="160" height="32" as="geometry" />
        </mxCell>
        <mxCell id="zkfFHV4jXpPFQw0GAbJ--3" value="#listaEventos: string" style="text;align=left;verticalAlign=top;spacingLeft=4;spacingRight=4;overflow=hidden;rotatable=0;points=[[0,0.5],[1,0.5]];portConstraint=eastwest;rounded=0;shadow=0;html=0;" parent="zkfFHV4jXpPFQw0GAbJ--0" vertex="1">
          <mxGeometry y="110" width="160" height="30" as="geometry" />
        </mxCell>
        <mxCell id="zkfFHV4jXpPFQw0GAbJ--4" value="" style="line;html=1;strokeWidth=1;align=left;verticalAlign=middle;spacingTop=-1;spacingLeft=3;spacingRight=3;rotatable=0;labelPosition=right;points=[];portConstraint=eastwest;" parent="zkfFHV4jXpPFQw0GAbJ--0" vertex="1">
          <mxGeometry y="140" width="160" height="8" as="geometry" />
        </mxCell>
        <mxCell id="EMN7tc_JsyT26P8ypBS2-24" value="+administrarCursos()" style="text;align=left;verticalAlign=top;spacingLeft=4;spacingRight=4;overflow=hidden;rotatable=0;points=[[0,0.5],[1,0.5]];portConstraint=eastwest;rounded=0;shadow=0;html=0;" vertex="1" parent="zkfFHV4jXpPFQw0GAbJ--0">
          <mxGeometry y="148" width="160" height="26" as="geometry" />
        </mxCell>
        <mxCell id="EMN7tc_JsyT26P8ypBS2-23" value="+organizarEventos()" style="text;align=left;verticalAlign=top;spacingLeft=4;spacingRight=4;overflow=hidden;rotatable=0;points=[[0,0.5],[1,0.5]];portConstraint=eastwest;rounded=0;shadow=0;html=0;" vertex="1" parent="zkfFHV4jXpPFQw0GAbJ--0">
          <mxGeometry y="174" width="160" height="26" as="geometry" />
        </mxCell>
        <mxCell id="EMN7tc_JsyT26P8ypBS2-22" value="+gerenciarDivulgação()" style="text;align=left;verticalAlign=top;spacingLeft=4;spacingRight=4;overflow=hidden;rotatable=0;points=[[0,0.5],[1,0.5]];portConstraint=eastwest;rounded=0;shadow=0;html=0;" vertex="1" parent="zkfFHV4jXpPFQw0GAbJ--0">
          <mxGeometry y="200" width="160" height="26" as="geometry" />
        </mxCell>
        <mxCell id="EMN7tc_JsyT26P8ypBS2-94" value="+gerenciarProdutos()" style="text;align=left;verticalAlign=top;spacingLeft=4;spacingRight=4;overflow=hidden;rotatable=0;points=[[0,0.5],[1,0.5]];portConstraint=eastwest;rounded=0;shadow=0;html=0;" vertex="1" parent="zkfFHV4jXpPFQw0GAbJ--0">
          <mxGeometry y="226" width="160" height="30" as="geometry" />
        </mxCell>
        <mxCell id="EMN7tc_JsyT26P8ypBS2-25" value="Modelo" style="swimlane;fontStyle=2;align=center;verticalAlign=top;childLayout=stackLayout;horizontal=1;startSize=26;horizontalStack=0;resizeParent=1;resizeLast=0;collapsible=1;marginBottom=0;rounded=0;shadow=0;strokeWidth=1;" vertex="1" parent="WIyWlLk6GJQsqaUBKTNV-1">
          <mxGeometry x="-290" y="-340" width="190" height="230" as="geometry">
            <mxRectangle x="230" y="140" width="160" height="26" as="alternateBounds" />
          </mxGeometry>
        </mxCell>
        <mxCell id="EMN7tc_JsyT26P8ypBS2-26" value="+nome: string" style="text;align=left;verticalAlign=top;spacingLeft=4;spacingRight=4;overflow=hidden;rotatable=0;points=[[0,0.5],[1,0.5]];portConstraint=eastwest;" vertex="1" parent="EMN7tc_JsyT26P8ypBS2-25">
          <mxGeometry y="26" width="190" height="26" as="geometry" />
        </mxCell>
        <mxCell id="EMN7tc_JsyT26P8ypBS2-27" value="+idade: inteiro" style="text;align=left;verticalAlign=top;spacingLeft=4;spacingRight=4;overflow=hidden;rotatable=0;points=[[0,0.5],[1,0.5]];portConstraint=eastwest;rounded=0;shadow=0;html=0;" vertex="1" parent="EMN7tc_JsyT26P8ypBS2-25">
          <mxGeometry y="52" width="190" height="26" as="geometry" />
        </mxCell>
        <mxCell id="EMN7tc_JsyT26P8ypBS2-28" value="#status: string" style="text;align=left;verticalAlign=top;spacingLeft=4;spacingRight=4;overflow=hidden;rotatable=0;points=[[0,0.5],[1,0.5]];portConstraint=eastwest;" vertex="1" parent="EMN7tc_JsyT26P8ypBS2-25">
          <mxGeometry y="78" width="190" height="32" as="geometry" />
        </mxCell>
        <mxCell id="EMN7tc_JsyT26P8ypBS2-29" value="#listaCursosInscritos: string" style="text;align=left;verticalAlign=top;spacingLeft=4;spacingRight=4;overflow=hidden;rotatable=0;points=[[0,0.5],[1,0.5]];portConstraint=eastwest;rounded=0;shadow=0;html=0;" vertex="1" parent="EMN7tc_JsyT26P8ypBS2-25">
          <mxGeometry y="110" width="190" height="30" as="geometry" />
        </mxCell>
        <mxCell id="EMN7tc_JsyT26P8ypBS2-34" value="#listaEventosParticipados: string" style="text;align=left;verticalAlign=top;spacingLeft=4;spacingRight=4;overflow=hidden;rotatable=0;points=[[0,0.5],[1,0.5]];portConstraint=eastwest;rounded=0;shadow=0;html=0;" vertex="1" parent="EMN7tc_JsyT26P8ypBS2-25">
          <mxGeometry y="140" width="190" height="30" as="geometry" />
        </mxCell>
        <mxCell id="EMN7tc_JsyT26P8ypBS2-30" value="" style="line;html=1;strokeWidth=1;align=left;verticalAlign=middle;spacingTop=-1;spacingLeft=3;spacingRight=3;rotatable=0;labelPosition=right;points=[];portConstraint=eastwest;" vertex="1" parent="EMN7tc_JsyT26P8ypBS2-25">
          <mxGeometry y="170" width="190" height="8" as="geometry" />
        </mxCell>
        <mxCell id="EMN7tc_JsyT26P8ypBS2-31" value="+inscreverCurso()" style="text;align=left;verticalAlign=top;spacingLeft=4;spacingRight=4;overflow=hidden;rotatable=0;points=[[0,0.5],[1,0.5]];portConstraint=eastwest;rounded=0;shadow=0;html=0;" vertex="1" parent="EMN7tc_JsyT26P8ypBS2-25">
          <mxGeometry y="178" width="190" height="26" as="geometry" />
        </mxCell>
        <mxCell id="EMN7tc_JsyT26P8ypBS2-32" value="+participarEvento()" style="text;align=left;verticalAlign=top;spacingLeft=4;spacingRight=4;overflow=hidden;rotatable=0;points=[[0,0.5],[1,0.5]];portConstraint=eastwest;rounded=0;shadow=0;html=0;" vertex="1" parent="EMN7tc_JsyT26P8ypBS2-25">
          <mxGeometry y="204" width="190" height="26" as="geometry" />
        </mxCell>
        <mxCell id="EMN7tc_JsyT26P8ypBS2-35" value="Curso" style="swimlane;fontStyle=2;align=center;verticalAlign=top;childLayout=stackLayout;horizontal=1;startSize=26;horizontalStack=0;resizeParent=1;resizeLast=0;collapsible=1;marginBottom=0;rounded=0;shadow=0;strokeWidth=1;" vertex="1" parent="WIyWlLk6GJQsqaUBKTNV-1">
          <mxGeometry x="-290" y="-80" width="190" height="146" as="geometry">
            <mxRectangle x="230" y="140" width="160" height="26" as="alternateBounds" />
          </mxGeometry>
        </mxCell>
        <mxCell id="EMN7tc_JsyT26P8ypBS2-36" value="+nome: string" style="text;align=left;verticalAlign=top;spacingLeft=4;spacingRight=4;overflow=hidden;rotatable=0;points=[[0,0.5],[1,0.5]];portConstraint=eastwest;" vertex="1" parent="EMN7tc_JsyT26P8ypBS2-35">
          <mxGeometry y="26" width="190" height="26" as="geometry" />
        </mxCell>
        <mxCell id="EMN7tc_JsyT26P8ypBS2-37" value="+duracao: inteiro" style="text;align=left;verticalAlign=top;spacingLeft=4;spacingRight=4;overflow=hidden;rotatable=0;points=[[0,0.5],[1,0.5]];portConstraint=eastwest;rounded=0;shadow=0;html=0;" vertex="1" parent="EMN7tc_JsyT26P8ypBS2-35">
          <mxGeometry y="52" width="190" height="26" as="geometry" />
        </mxCell>
        <mxCell id="EMN7tc_JsyT26P8ypBS2-38" value="#listaInscritos: string" style="text;align=left;verticalAlign=top;spacingLeft=4;spacingRight=4;overflow=hidden;rotatable=0;points=[[0,0.5],[1,0.5]];portConstraint=eastwest;" vertex="1" parent="EMN7tc_JsyT26P8ypBS2-35">
          <mxGeometry y="78" width="190" height="32" as="geometry" />
        </mxCell>
        <mxCell id="EMN7tc_JsyT26P8ypBS2-40" value="" style="line;html=1;strokeWidth=1;align=left;verticalAlign=middle;spacingTop=-1;spacingLeft=3;spacingRight=3;rotatable=0;labelPosition=right;points=[];portConstraint=eastwest;" vertex="1" parent="EMN7tc_JsyT26P8ypBS2-35">
          <mxGeometry y="110" width="190" height="8" as="geometry" />
        </mxCell>
        <mxCell id="EMN7tc_JsyT26P8ypBS2-41" value="+adicionarModelo()" style="text;align=left;verticalAlign=top;spacingLeft=4;spacingRight=4;overflow=hidden;rotatable=0;points=[[0,0.5],[1,0.5]];portConstraint=eastwest;rounded=0;shadow=0;html=0;" vertex="1" parent="EMN7tc_JsyT26P8ypBS2-35">
          <mxGeometry y="118" width="190" height="26" as="geometry" />
        </mxCell>
        <mxCell id="EMN7tc_JsyT26P8ypBS2-44" value="Evento" style="swimlane;fontStyle=2;align=center;verticalAlign=top;childLayout=stackLayout;horizontal=1;startSize=26;horizontalStack=0;resizeParent=1;resizeLast=0;collapsible=1;marginBottom=0;rounded=0;shadow=0;strokeWidth=1;" vertex="1" parent="WIyWlLk6GJQsqaUBKTNV-1">
          <mxGeometry x="-290" y="80" width="190" height="176" as="geometry">
            <mxRectangle x="230" y="140" width="160" height="26" as="alternateBounds" />
          </mxGeometry>
        </mxCell>
        <mxCell id="EMN7tc_JsyT26P8ypBS2-45" value="+nome: string" style="text;align=left;verticalAlign=top;spacingLeft=4;spacingRight=4;overflow=hidden;rotatable=0;points=[[0,0.5],[1,0.5]];portConstraint=eastwest;" vertex="1" parent="EMN7tc_JsyT26P8ypBS2-44">
          <mxGeometry y="26" width="190" height="26" as="geometry" />
        </mxCell>
        <mxCell id="EMN7tc_JsyT26P8ypBS2-46" value="+data: inteiro" style="text;align=left;verticalAlign=top;spacingLeft=4;spacingRight=4;overflow=hidden;rotatable=0;points=[[0,0.5],[1,0.5]];portConstraint=eastwest;rounded=0;shadow=0;html=0;" vertex="1" parent="EMN7tc_JsyT26P8ypBS2-44">
          <mxGeometry y="52" width="190" height="26" as="geometry" />
        </mxCell>
        <mxCell id="EMN7tc_JsyT26P8ypBS2-47" value="+local: string" style="text;align=left;verticalAlign=top;spacingLeft=4;spacingRight=4;overflow=hidden;rotatable=0;points=[[0,0.5],[1,0.5]];portConstraint=eastwest;" vertex="1" parent="EMN7tc_JsyT26P8ypBS2-44">
          <mxGeometry y="78" width="190" height="32" as="geometry" />
        </mxCell>
        <mxCell id="EMN7tc_JsyT26P8ypBS2-50" value="#modelosParticipantes: string" style="text;align=left;verticalAlign=top;spacingLeft=4;spacingRight=4;overflow=hidden;rotatable=0;points=[[0,0.5],[1,0.5]];portConstraint=eastwest;" vertex="1" parent="EMN7tc_JsyT26P8ypBS2-44">
          <mxGeometry y="110" width="190" height="32" as="geometry" />
        </mxCell>
        <mxCell id="EMN7tc_JsyT26P8ypBS2-48" value="" style="line;html=1;strokeWidth=1;align=left;verticalAlign=middle;spacingTop=-1;spacingLeft=3;spacingRight=3;rotatable=0;labelPosition=right;points=[];portConstraint=eastwest;" vertex="1" parent="EMN7tc_JsyT26P8ypBS2-44">
          <mxGeometry y="142" width="190" height="8" as="geometry" />
        </mxCell>
        <mxCell id="EMN7tc_JsyT26P8ypBS2-49" value="+registrarParticipação()" style="text;align=left;verticalAlign=top;spacingLeft=4;spacingRight=4;overflow=hidden;rotatable=0;points=[[0,0.5],[1,0.5]];portConstraint=eastwest;rounded=0;shadow=0;html=0;" vertex="1" parent="EMN7tc_JsyT26P8ypBS2-44">
          <mxGeometry y="150" width="190" height="26" as="geometry" />
        </mxCell>
        <mxCell id="EMN7tc_JsyT26P8ypBS2-52" value="Divulgação" style="swimlane;fontStyle=2;align=center;verticalAlign=top;childLayout=stackLayout;horizontal=1;startSize=26;horizontalStack=0;resizeParent=1;resizeLast=0;collapsible=1;marginBottom=0;rounded=0;shadow=0;strokeWidth=1;" vertex="1" parent="WIyWlLk6GJQsqaUBKTNV-1">
          <mxGeometry x="-290" y="280" width="190" height="116" as="geometry">
            <mxRectangle x="230" y="140" width="160" height="26" as="alternateBounds" />
          </mxGeometry>
        </mxCell>
        <mxCell id="EMN7tc_JsyT26P8ypBS2-53" value="+plataformas: string" style="text;align=left;verticalAlign=top;spacingLeft=4;spacingRight=4;overflow=hidden;rotatable=0;points=[[0,0.5],[1,0.5]];portConstraint=eastwest;" vertex="1" parent="EMN7tc_JsyT26P8ypBS2-52">
          <mxGeometry y="26" width="190" height="26" as="geometry" />
        </mxCell>
        <mxCell id="EMN7tc_JsyT26P8ypBS2-54" value="+conteudo: string" style="text;align=left;verticalAlign=top;spacingLeft=4;spacingRight=4;overflow=hidden;rotatable=0;points=[[0,0.5],[1,0.5]];portConstraint=eastwest;rounded=0;shadow=0;html=0;" vertex="1" parent="EMN7tc_JsyT26P8ypBS2-52">
          <mxGeometry y="52" width="190" height="26" as="geometry" />
        </mxCell>
        <mxCell id="EMN7tc_JsyT26P8ypBS2-57" value="" style="line;html=1;strokeWidth=1;align=left;verticalAlign=middle;spacingTop=-1;spacingLeft=3;spacingRight=3;rotatable=0;labelPosition=right;points=[];portConstraint=eastwest;" vertex="1" parent="EMN7tc_JsyT26P8ypBS2-52">
          <mxGeometry y="78" width="190" height="8" as="geometry" />
        </mxCell>
        <mxCell id="EMN7tc_JsyT26P8ypBS2-58" value="+publicarConteudo()" style="text;align=left;verticalAlign=top;spacingLeft=4;spacingRight=4;overflow=hidden;rotatable=0;points=[[0,0.5],[1,0.5]];portConstraint=eastwest;rounded=0;shadow=0;html=0;" vertex="1" parent="EMN7tc_JsyT26P8ypBS2-52">
          <mxGeometry y="86" width="190" height="26" as="geometry" />
        </mxCell>
        <mxCell id="EMN7tc_JsyT26P8ypBS2-67" style="edgeStyle=orthogonalEdgeStyle;rounded=0;orthogonalLoop=1;jettySize=auto;html=1;exitX=0;exitY=0.5;exitDx=0;exitDy=0;entryX=1;entryY=0.5;entryDx=0;entryDy=0;" edge="1" parent="WIyWlLk6GJQsqaUBKTNV-1" source="EMN7tc_JsyT26P8ypBS2-22" target="EMN7tc_JsyT26P8ypBS2-54">
          <mxGeometry relative="1" as="geometry">
            <Array as="points">
              <mxPoint x="110" y="150" />
              <mxPoint y="150" />
              <mxPoint y="290" />
              <mxPoint x="-60" y="290" />
              <mxPoint x="-60" y="345" />
            </Array>
          </mxGeometry>
        </mxCell>
        <mxCell id="EMN7tc_JsyT26P8ypBS2-69" style="edgeStyle=orthogonalEdgeStyle;rounded=0;orthogonalLoop=1;jettySize=auto;html=1;exitX=0;exitY=0.5;exitDx=0;exitDy=0;" edge="1" parent="WIyWlLk6GJQsqaUBKTNV-1" source="zkfFHV4jXpPFQw0GAbJ--5" target="EMN7tc_JsyT26P8ypBS2-35">
          <mxGeometry relative="1" as="geometry">
            <Array as="points">
              <mxPoint x="110" y="100" />
              <mxPoint x="40" y="100" />
              <mxPoint x="40" y="-7" />
            </Array>
          </mxGeometry>
        </mxCell>
        <mxCell id="EMN7tc_JsyT26P8ypBS2-70" style="edgeStyle=orthogonalEdgeStyle;rounded=0;orthogonalLoop=1;jettySize=auto;html=1;exitX=0;exitY=0.5;exitDx=0;exitDy=0;" edge="1" parent="WIyWlLk6GJQsqaUBKTNV-1" source="zkfFHV4jXpPFQw0GAbJ--2" target="EMN7tc_JsyT26P8ypBS2-29">
          <mxGeometry relative="1" as="geometry">
            <Array as="points">
              <mxPoint x="80" y="5" />
              <mxPoint x="80" y="-215" />
            </Array>
          </mxGeometry>
        </mxCell>
        <mxCell id="EMN7tc_JsyT26P8ypBS2-74" value="Venda de Produto" style="swimlane;fontStyle=2;align=center;verticalAlign=top;childLayout=stackLayout;horizontal=1;startSize=26;horizontalStack=0;resizeParent=1;resizeLast=0;collapsible=1;marginBottom=0;rounded=0;shadow=0;strokeWidth=1;" vertex="1" parent="WIyWlLk6GJQsqaUBKTNV-1">
          <mxGeometry x="360" y="-164" width="190" height="230" as="geometry">
            <mxRectangle x="230" y="140" width="160" height="26" as="alternateBounds" />
          </mxGeometry>
        </mxCell>
        <mxCell id="EMN7tc_JsyT26P8ypBS2-75" value="+id_venda" style="text;align=left;verticalAlign=top;spacingLeft=4;spacingRight=4;overflow=hidden;rotatable=0;points=[[0,0.5],[1,0.5]];portConstraint=eastwest;" vertex="1" parent="EMN7tc_JsyT26P8ypBS2-74">
          <mxGeometry y="26" width="190" height="26" as="geometry" />
        </mxCell>
        <mxCell id="EMN7tc_JsyT26P8ypBS2-76" value="+data_venda" style="text;align=left;verticalAlign=top;spacingLeft=4;spacingRight=4;overflow=hidden;rotatable=0;points=[[0,0.5],[1,0.5]];portConstraint=eastwest;rounded=0;shadow=0;html=0;" vertex="1" parent="EMN7tc_JsyT26P8ypBS2-74">
          <mxGeometry y="52" width="190" height="26" as="geometry" />
        </mxCell>
        <mxCell id="EMN7tc_JsyT26P8ypBS2-77" value="+cliente" style="text;align=left;verticalAlign=top;spacingLeft=4;spacingRight=4;overflow=hidden;rotatable=0;points=[[0,0.5],[1,0.5]];portConstraint=eastwest;" vertex="1" parent="EMN7tc_JsyT26P8ypBS2-74">
          <mxGeometry y="78" width="190" height="32" as="geometry" />
        </mxCell>
        <mxCell id="EMN7tc_JsyT26P8ypBS2-78" value="#lista_produtos_vendidos" style="text;align=left;verticalAlign=top;spacingLeft=4;spacingRight=4;overflow=hidden;rotatable=0;points=[[0,0.5],[1,0.5]];portConstraint=eastwest;rounded=0;shadow=0;html=0;" vertex="1" parent="EMN7tc_JsyT26P8ypBS2-74">
          <mxGeometry y="110" width="190" height="30" as="geometry" />
        </mxCell>
        <mxCell id="EMN7tc_JsyT26P8ypBS2-79" value="+valor_total" style="text;align=left;verticalAlign=top;spacingLeft=4;spacingRight=4;overflow=hidden;rotatable=0;points=[[0,0.5],[1,0.5]];portConstraint=eastwest;rounded=0;shadow=0;html=0;" vertex="1" parent="EMN7tc_JsyT26P8ypBS2-74">
          <mxGeometry y="140" width="190" height="30" as="geometry" />
        </mxCell>
        <mxCell id="EMN7tc_JsyT26P8ypBS2-80" value="" style="line;html=1;strokeWidth=1;align=left;verticalAlign=middle;spacingTop=-1;spacingLeft=3;spacingRight=3;rotatable=0;labelPosition=right;points=[];portConstraint=eastwest;" vertex="1" parent="EMN7tc_JsyT26P8ypBS2-74">
          <mxGeometry y="170" width="190" height="8" as="geometry" />
        </mxCell>
        <mxCell id="EMN7tc_JsyT26P8ypBS2-81" value="+registrar_venda()" style="text;align=left;verticalAlign=top;spacingLeft=4;spacingRight=4;overflow=hidden;rotatable=0;points=[[0,0.5],[1,0.5]];portConstraint=eastwest;rounded=0;shadow=0;html=0;" vertex="1" parent="EMN7tc_JsyT26P8ypBS2-74">
          <mxGeometry y="178" width="190" height="26" as="geometry" />
        </mxCell>
        <mxCell id="EMN7tc_JsyT26P8ypBS2-82" value="+calcular_total()" style="text;align=left;verticalAlign=top;spacingLeft=4;spacingRight=4;overflow=hidden;rotatable=0;points=[[0,0.5],[1,0.5]];portConstraint=eastwest;rounded=0;shadow=0;html=0;" vertex="1" parent="EMN7tc_JsyT26P8ypBS2-74">
          <mxGeometry y="204" width="190" height="26" as="geometry" />
        </mxCell>
        <mxCell id="EMN7tc_JsyT26P8ypBS2-83" value="Lista de Produtos" style="swimlane;fontStyle=2;align=center;verticalAlign=top;childLayout=stackLayout;horizontal=1;startSize=26;horizontalStack=0;resizeParent=1;resizeLast=0;collapsible=1;marginBottom=0;rounded=0;shadow=0;strokeWidth=1;" vertex="1" parent="WIyWlLk6GJQsqaUBKTNV-1">
          <mxGeometry x="360" y="120" width="190" height="230" as="geometry">
            <mxRectangle x="230" y="140" width="160" height="26" as="alternateBounds" />
          </mxGeometry>
        </mxCell>
        <mxCell id="EMN7tc_JsyT26P8ypBS2-84" value="+nome: string" style="text;align=left;verticalAlign=top;spacingLeft=4;spacingRight=4;overflow=hidden;rotatable=0;points=[[0,0.5],[1,0.5]];portConstraint=eastwest;" vertex="1" parent="EMN7tc_JsyT26P8ypBS2-83">
          <mxGeometry y="26" width="190" height="26" as="geometry" />
        </mxCell>
        <mxCell id="EMN7tc_JsyT26P8ypBS2-85" value="+preco: int" style="text;align=left;verticalAlign=top;spacingLeft=4;spacingRight=4;overflow=hidden;rotatable=0;points=[[0,0.5],[1,0.5]];portConstraint=eastwest;rounded=0;shadow=0;html=0;" vertex="1" parent="EMN7tc_JsyT26P8ypBS2-83">
          <mxGeometry y="52" width="190" height="26" as="geometry" />
        </mxCell>
        <mxCell id="EMN7tc_JsyT26P8ypBS2-86" value="+quntd_estoque: int" style="text;align=left;verticalAlign=top;spacingLeft=4;spacingRight=4;overflow=hidden;rotatable=0;points=[[0,0.5],[1,0.5]];portConstraint=eastwest;" vertex="1" parent="EMN7tc_JsyT26P8ypBS2-83">
          <mxGeometry y="78" width="190" height="32" as="geometry" />
        </mxCell>
        <mxCell id="EMN7tc_JsyT26P8ypBS2-87" value="+categoria: string" style="text;align=left;verticalAlign=top;spacingLeft=4;spacingRight=4;overflow=hidden;rotatable=0;points=[[0,0.5],[1,0.5]];portConstraint=eastwest;rounded=0;shadow=0;html=0;" vertex="1" parent="EMN7tc_JsyT26P8ypBS2-83">
          <mxGeometry y="110" width="190" height="30" as="geometry" />
        </mxCell>
        <mxCell id="EMN7tc_JsyT26P8ypBS2-89" value="" style="line;html=1;strokeWidth=1;align=left;verticalAlign=middle;spacingTop=-1;spacingLeft=3;spacingRight=3;rotatable=0;labelPosition=right;points=[];portConstraint=eastwest;" vertex="1" parent="EMN7tc_JsyT26P8ypBS2-83">
          <mxGeometry y="140" width="190" height="8" as="geometry" />
        </mxCell>
        <mxCell id="EMN7tc_JsyT26P8ypBS2-90" value="+adicionar_produto()" style="text;align=left;verticalAlign=top;spacingLeft=4;spacingRight=4;overflow=hidden;rotatable=0;points=[[0,0.5],[1,0.5]];portConstraint=eastwest;rounded=0;shadow=0;html=0;" vertex="1" parent="EMN7tc_JsyT26P8ypBS2-83">
          <mxGeometry y="148" width="190" height="26" as="geometry" />
        </mxCell>
        <mxCell id="EMN7tc_JsyT26P8ypBS2-91" value="+remover_produto()" style="text;align=left;verticalAlign=top;spacingLeft=4;spacingRight=4;overflow=hidden;rotatable=0;points=[[0,0.5],[1,0.5]];portConstraint=eastwest;rounded=0;shadow=0;html=0;" vertex="1" parent="EMN7tc_JsyT26P8ypBS2-83">
          <mxGeometry y="174" width="190" height="26" as="geometry" />
        </mxCell>
        <mxCell id="EMN7tc_JsyT26P8ypBS2-92" value="+atualizar_estoque()" style="text;align=left;verticalAlign=top;spacingLeft=4;spacingRight=4;overflow=hidden;rotatable=0;points=[[0,0.5],[1,0.5]];portConstraint=eastwest;rounded=0;shadow=0;html=0;" vertex="1" parent="EMN7tc_JsyT26P8ypBS2-83">
          <mxGeometry y="200" width="190" height="26" as="geometry" />
        </mxCell>
        <mxCell id="EMN7tc_JsyT26P8ypBS2-99" style="edgeStyle=orthogonalEdgeStyle;rounded=0;orthogonalLoop=1;jettySize=auto;html=1;exitX=0;exitY=0.5;exitDx=0;exitDy=0;entryX=1.005;entryY=0.114;entryDx=0;entryDy=0;entryPerimeter=0;" edge="1" parent="WIyWlLk6GJQsqaUBKTNV-1" source="EMN7tc_JsyT26P8ypBS2-23" target="EMN7tc_JsyT26P8ypBS2-44">
          <mxGeometry relative="1" as="geometry" />
        </mxCell>
        <mxCell id="EMN7tc_JsyT26P8ypBS2-100" style="edgeStyle=orthogonalEdgeStyle;rounded=0;orthogonalLoop=1;jettySize=auto;html=1;exitX=1;exitY=0.5;exitDx=0;exitDy=0;entryX=0.024;entryY=0.255;entryDx=0;entryDy=0;entryPerimeter=0;" edge="1" parent="WIyWlLk6GJQsqaUBKTNV-1" source="EMN7tc_JsyT26P8ypBS2-94" target="EMN7tc_JsyT26P8ypBS2-78">
          <mxGeometry relative="1" as="geometry" />
        </mxCell>
        <mxCell id="EMN7tc_JsyT26P8ypBS2-101" style="edgeStyle=orthogonalEdgeStyle;rounded=0;orthogonalLoop=1;jettySize=auto;html=1;entryX=-0.009;entryY=0.865;entryDx=0;entryDy=0;entryPerimeter=0;" edge="1" parent="WIyWlLk6GJQsqaUBKTNV-1" source="EMN7tc_JsyT26P8ypBS2-94" target="EMN7tc_JsyT26P8ypBS2-86">
          <mxGeometry relative="1" as="geometry" />
        </mxCell>
        <mxCell id="EMN7tc_JsyT26P8ypBS2-103" value="" style="rounded=0;whiteSpace=wrap;html=1;rotation=90;" vertex="1" parent="WIyWlLk6GJQsqaUBKTNV-1">
          <mxGeometry x="-218.75" y="963.75" width="767.5" height="270" as="geometry" />
        </mxCell>
        <mxCell id="EMN7tc_JsyT26P8ypBS2-119" style="edgeStyle=orthogonalEdgeStyle;rounded=0;orthogonalLoop=1;jettySize=auto;html=1;exitX=0.5;exitY=0.5;exitDx=0;exitDy=0;exitPerimeter=0;entryX=1;entryY=0.5;entryDx=0;entryDy=0;" edge="1" parent="WIyWlLk6GJQsqaUBKTNV-1" source="EMN7tc_JsyT26P8ypBS2-104" target="EMN7tc_JsyT26P8ypBS2-110">
          <mxGeometry relative="1" as="geometry" />
        </mxCell>
        <mxCell id="EMN7tc_JsyT26P8ypBS2-121" style="edgeStyle=orthogonalEdgeStyle;rounded=0;orthogonalLoop=1;jettySize=auto;html=1;exitX=0.5;exitY=0.5;exitDx=0;exitDy=0;exitPerimeter=0;entryX=1;entryY=0.5;entryDx=0;entryDy=0;" edge="1" parent="WIyWlLk6GJQsqaUBKTNV-1" source="EMN7tc_JsyT26P8ypBS2-104" target="EMN7tc_JsyT26P8ypBS2-111">
          <mxGeometry relative="1" as="geometry" />
        </mxCell>
        <mxCell id="EMN7tc_JsyT26P8ypBS2-123" style="edgeStyle=orthogonalEdgeStyle;rounded=0;orthogonalLoop=1;jettySize=auto;html=1;exitX=0.5;exitY=0.5;exitDx=0;exitDy=0;exitPerimeter=0;entryX=1;entryY=0.5;entryDx=0;entryDy=0;" edge="1" parent="WIyWlLk6GJQsqaUBKTNV-1" source="EMN7tc_JsyT26P8ypBS2-104" target="EMN7tc_JsyT26P8ypBS2-112">
          <mxGeometry relative="1" as="geometry" />
        </mxCell>
        <mxCell id="EMN7tc_JsyT26P8ypBS2-104" value="Admistrador" style="shape=umlActor;verticalLabelPosition=bottom;verticalAlign=top;html=1;" vertex="1" parent="WIyWlLk6GJQsqaUBKTNV-1">
          <mxGeometry x="540" y="830" width="70" height="140" as="geometry" />
        </mxCell>
        <mxCell id="EMN7tc_JsyT26P8ypBS2-125" style="edgeStyle=orthogonalEdgeStyle;rounded=0;orthogonalLoop=1;jettySize=auto;html=1;exitX=0.5;exitY=0.5;exitDx=0;exitDy=0;exitPerimeter=0;entryX=0;entryY=0.5;entryDx=0;entryDy=0;" edge="1" parent="WIyWlLk6GJQsqaUBKTNV-1" source="EMN7tc_JsyT26P8ypBS2-106" target="EMN7tc_JsyT26P8ypBS2-113">
          <mxGeometry relative="1" as="geometry" />
        </mxCell>
        <mxCell id="EMN7tc_JsyT26P8ypBS2-126" style="edgeStyle=orthogonalEdgeStyle;rounded=0;orthogonalLoop=1;jettySize=auto;html=1;exitX=0.5;exitY=0.5;exitDx=0;exitDy=0;exitPerimeter=0;entryX=0;entryY=0.5;entryDx=0;entryDy=0;" edge="1" parent="WIyWlLk6GJQsqaUBKTNV-1" source="EMN7tc_JsyT26P8ypBS2-106" target="EMN7tc_JsyT26P8ypBS2-114">
          <mxGeometry relative="1" as="geometry" />
        </mxCell>
        <mxCell id="EMN7tc_JsyT26P8ypBS2-106" value="Modelo" style="shape=umlActor;verticalLabelPosition=bottom;verticalAlign=top;html=1;" vertex="1" parent="WIyWlLk6GJQsqaUBKTNV-1">
          <mxGeometry x="-205" y="730" width="70" height="140" as="geometry" />
        </mxCell>
        <mxCell id="EMN7tc_JsyT26P8ypBS2-127" style="edgeStyle=orthogonalEdgeStyle;rounded=0;orthogonalLoop=1;jettySize=auto;html=1;exitX=0.5;exitY=0.5;exitDx=0;exitDy=0;exitPerimeter=0;" edge="1" parent="WIyWlLk6GJQsqaUBKTNV-1" source="EMN7tc_JsyT26P8ypBS2-107" target="EMN7tc_JsyT26P8ypBS2-115">
          <mxGeometry relative="1" as="geometry" />
        </mxCell>
        <mxCell id="EMN7tc_JsyT26P8ypBS2-107" value="Cliente" style="shape=umlActor;verticalLabelPosition=bottom;verticalAlign=top;html=1;" vertex="1" parent="WIyWlLk6GJQsqaUBKTNV-1">
          <mxGeometry x="-218.75" y="1270" width="70" height="140" as="geometry" />
        </mxCell>
        <mxCell id="EMN7tc_JsyT26P8ypBS2-108" value="Gerenciar Modelos&lt;span style=&quot;color: rgba(0, 0, 0, 0); font-family: monospace; font-size: 0px; text-align: start; text-wrap-mode: nowrap;&quot;&gt;%3CmxGraphModel%3E%3Croot%3E%3CmxCell%20id%3D%220%22%2F%3E%3CmxCell%20id%3D%221%22%20parent%3D%220%22%2F%3E%3CmxCell%20id%3D%222%22%20value%3D%22Admistrador%22%20style%3D%22shape%3DumlActor%3BverticalLabelPosition%3Dbottom%3BverticalAlign%3Dtop%3Bhtml%3D1%3B%22%20vertex%3D%221%22%20parent%3D%221%22%3E%3CmxGeometry%20x%3D%22520%22%20y%3D%22770%22%20width%3D%2270%22%20height%3D%22140%22%20as%3D%22geometry%22%2F%3E%3C%2FmxCell%3E%3C%2Froot%3E%3C%2FmxGraphModel%3E&lt;/span&gt;" style="ellipse;whiteSpace=wrap;html=1;" vertex="1" parent="WIyWlLk6GJQsqaUBKTNV-1">
          <mxGeometry x="95" y="730" width="140" height="70" as="geometry" />
        </mxCell>
        <mxCell id="EMN7tc_JsyT26P8ypBS2-110" value="Administrar Eventos" style="ellipse;whiteSpace=wrap;html=1;" vertex="1" parent="WIyWlLk6GJQsqaUBKTNV-1">
          <mxGeometry x="95" y="830" width="140" height="70" as="geometry" />
        </mxCell>
        <mxCell id="EMN7tc_JsyT26P8ypBS2-111" value="Gerenciar Cursos" style="ellipse;whiteSpace=wrap;html=1;" vertex="1" parent="WIyWlLk6GJQsqaUBKTNV-1">
          <mxGeometry x="95" y="930" width="140" height="70" as="geometry" />
        </mxCell>
        <mxCell id="EMN7tc_JsyT26P8ypBS2-112" value="Divulgar Conteúdo" style="ellipse;whiteSpace=wrap;html=1;" vertex="1" parent="WIyWlLk6GJQsqaUBKTNV-1">
          <mxGeometry x="95" y="1030" width="140" height="70" as="geometry" />
        </mxCell>
        <mxCell id="EMN7tc_JsyT26P8ypBS2-113" value="Inscrever-se em Curso" style="ellipse;whiteSpace=wrap;html=1;" vertex="1" parent="WIyWlLk6GJQsqaUBKTNV-1">
          <mxGeometry x="95" y="1140" width="140" height="70" as="geometry" />
        </mxCell>
        <mxCell id="EMN7tc_JsyT26P8ypBS2-114" value="Participar de Evento" style="ellipse;whiteSpace=wrap;html=1;" vertex="1" parent="WIyWlLk6GJQsqaUBKTNV-1">
          <mxGeometry x="95" y="1260" width="140" height="70" as="geometry" />
        </mxCell>
        <mxCell id="EMN7tc_JsyT26P8ypBS2-115" value="Comprar Produto" style="ellipse;whiteSpace=wrap;html=1;" vertex="1" parent="WIyWlLk6GJQsqaUBKTNV-1">
          <mxGeometry x="95" y="1370" width="145" height="70" as="geometry" />
        </mxCell>
        <mxCell id="EMN7tc_JsyT26P8ypBS2-128" style="edgeStyle=orthogonalEdgeStyle;rounded=0;orthogonalLoop=1;jettySize=auto;html=1;exitX=0.5;exitY=0.5;exitDx=0;exitDy=0;exitPerimeter=0;entryX=0.994;entryY=0.581;entryDx=0;entryDy=0;entryPerimeter=0;" edge="1" parent="WIyWlLk6GJQsqaUBKTNV-1" source="EMN7tc_JsyT26P8ypBS2-104" target="EMN7tc_JsyT26P8ypBS2-108">
          <mxGeometry relative="1" as="geometry" />
        </mxCell>
        <mxCell id="EMN7tc_JsyT26P8ypBS2-129" value="Modelos" style="html=1;whiteSpace=wrap;" vertex="1" parent="WIyWlLk6GJQsqaUBKTNV-1">
          <mxGeometry x="-218.75" y="2030" width="110" height="50" as="geometry" />
        </mxCell>
        <mxCell id="EMN7tc_JsyT26P8ypBS2-131" value="Administrador" style="html=1;whiteSpace=wrap;" vertex="1" parent="WIyWlLk6GJQsqaUBKTNV-1">
          <mxGeometry x="351.25" y="2030" width="110" height="50" as="geometry" />
        </mxCell>
        <mxCell id="EMN7tc_JsyT26P8ypBS2-132" value="Cliente" style="html=1;whiteSpace=wrap;" vertex="1" parent="WIyWlLk6GJQsqaUBKTNV-1">
          <mxGeometry x="51.25" y="2313.34" width="110" height="50" as="geometry" />
        </mxCell>
        <mxCell id="EMN7tc_JsyT26P8ypBS2-133" value="Sistema de Pagamento Externo" style="html=1;whiteSpace=wrap;" vertex="1" parent="WIyWlLk6GJQsqaUBKTNV-1">
          <mxGeometry x="51.25" y="1730" width="110" height="50" as="geometry" />
        </mxCell>
        <mxCell id="EMN7tc_JsyT26P8ypBS2-134" value="Site Top Models Angels" style="ellipse;shape=umlEntity;whiteSpace=wrap;html=1;" vertex="1" parent="WIyWlLk6GJQsqaUBKTNV-1">
          <mxGeometry x="66.25" y="2015" width="80" height="80" as="geometry" />
        </mxCell>
        <mxCell id="EMN7tc_JsyT26P8ypBS2-135" value="Inscrever-se em cursos" style="html=1;verticalAlign=bottom;endArrow=block;curved=0;rounded=0;" edge="1" parent="WIyWlLk6GJQsqaUBKTNV-1">
          <mxGeometry width="80" relative="1" as="geometry">
            <mxPoint x="-68.75" y="2040" as="sourcePoint" />
            <mxPoint x="11.25" y="2040" as="targetPoint" />
            <mxPoint as="offset" />
          </mxGeometry>
        </mxCell>
        <mxCell id="EMN7tc_JsyT26P8ypBS2-139" value="Participa de eventos" style="html=1;verticalAlign=bottom;endArrow=block;curved=0;rounded=0;" edge="1" parent="WIyWlLk6GJQsqaUBKTNV-1">
          <mxGeometry y="21" width="80" relative="1" as="geometry">
            <mxPoint x="11.25" y="2079.05" as="sourcePoint" />
            <mxPoint x="-68.75" y="2079.05" as="targetPoint" />
            <mxPoint as="offset" />
          </mxGeometry>
        </mxCell>
        <mxCell id="EMN7tc_JsyT26P8ypBS2-140" value="Resposta positiva" style="html=1;verticalAlign=bottom;endArrow=block;curved=0;rounded=0;" edge="1" parent="WIyWlLk6GJQsqaUBKTNV-1">
          <mxGeometry width="80" relative="1" as="geometry">
            <mxPoint x="221.25" y="2040" as="sourcePoint" />
            <mxPoint x="311.25" y="2040" as="targetPoint" />
            <mxPoint as="offset" />
          </mxGeometry>
        </mxCell>
        <mxCell id="EMN7tc_JsyT26P8ypBS2-141" value="" style="html=1;verticalAlign=bottom;endArrow=block;curved=0;rounded=0;" edge="1" parent="WIyWlLk6GJQsqaUBKTNV-1">
          <mxGeometry y="21" width="80" relative="1" as="geometry">
            <mxPoint x="130.3" y="2180" as="sourcePoint" />
            <mxPoint x="130.3" y="2276.6800000000003" as="targetPoint" />
            <mxPoint as="offset" />
          </mxGeometry>
        </mxCell>
        <mxCell id="EMN7tc_JsyT26P8ypBS2-144" value="" style="html=1;verticalAlign=bottom;endArrow=block;curved=0;rounded=0;" edge="1" parent="WIyWlLk6GJQsqaUBKTNV-1">
          <mxGeometry width="80" relative="1" as="geometry">
            <mxPoint x="81.25" y="2283.34" as="sourcePoint" />
            <mxPoint x="81.25" y="2183.34" as="targetPoint" />
            <mxPoint as="offset" />
          </mxGeometry>
        </mxCell>
        <mxCell id="EMN7tc_JsyT26P8ypBS2-146" value="Acompanha eventos" style="text;html=1;align=center;verticalAlign=middle;resizable=0;points=[];autosize=1;strokeColor=none;fillColor=none;rotation=-90;" vertex="1" parent="WIyWlLk6GJQsqaUBKTNV-1">
          <mxGeometry x="1.25" y="2213.34" width="130" height="30" as="geometry" />
        </mxCell>
        <mxCell id="EMN7tc_JsyT26P8ypBS2-149" value="Garante funcionamento" style="html=1;verticalAlign=bottom;endArrow=block;curved=0;rounded=0;" edge="1" parent="WIyWlLk6GJQsqaUBKTNV-1">
          <mxGeometry y="21" width="80" relative="1" as="geometry">
            <mxPoint x="311.25" y="2089.05" as="sourcePoint" />
            <mxPoint x="231.25" y="2089.05" as="targetPoint" />
            <mxPoint as="offset" />
          </mxGeometry>
        </mxCell>
        <mxCell id="EMN7tc_JsyT26P8ypBS2-151" value="Exibe produtos e modelos" style="text;html=1;align=center;verticalAlign=middle;resizable=0;points=[];autosize=1;strokeColor=none;fillColor=none;rotation=90;" vertex="1" parent="WIyWlLk6GJQsqaUBKTNV-1">
          <mxGeometry x="66.25" y="2213.34" width="160" height="30" as="geometry" />
        </mxCell>
        <mxCell id="EMN7tc_JsyT26P8ypBS2-155" value="" style="html=1;verticalAlign=bottom;endArrow=block;curved=0;rounded=0;" edge="1" parent="WIyWlLk6GJQsqaUBKTNV-1">
          <mxGeometry y="21" width="80" relative="1" as="geometry">
            <mxPoint x="131.25" y="1827.32" as="sourcePoint" />
            <mxPoint x="131.25" y="1924" as="targetPoint" />
            <mxPoint as="offset" />
          </mxGeometry>
        </mxCell>
        <mxCell id="EMN7tc_JsyT26P8ypBS2-156" value="" style="html=1;verticalAlign=bottom;endArrow=block;curved=0;rounded=0;" edge="1" parent="WIyWlLk6GJQsqaUBKTNV-1">
          <mxGeometry width="80" relative="1" as="geometry">
            <mxPoint x="81.25" y="1920" as="sourcePoint" />
            <mxPoint x="81.25" y="1820" as="targetPoint" />
            <mxPoint as="offset" />
          </mxGeometry>
        </mxCell>
        <mxCell id="EMN7tc_JsyT26P8ypBS2-157" value="Processa compras de produtos" style="text;html=1;align=center;verticalAlign=middle;resizable=0;points=[];autosize=1;strokeColor=none;fillColor=none;rotation=90;" vertex="1" parent="WIyWlLk6GJQsqaUBKTNV-1">
          <mxGeometry x="66.25" y="1864" width="190" height="30" as="geometry" />
        </mxCell>
        <mxCell id="EMN7tc_JsyT26P8ypBS2-159" value="Confirma o pagamento" style="text;html=1;align=center;verticalAlign=middle;resizable=0;points=[];autosize=1;strokeColor=none;fillColor=none;rotation=-90;" vertex="1" parent="WIyWlLk6GJQsqaUBKTNV-1">
          <mxGeometry x="-18.75" y="1864" width="150" height="30" as="geometry" />
        </mxCell>
      </root>
    </mxGraphModel>
  </diagram>
</mxfile>
